<svg width="27" height="28" viewBox="0 0 27 28" fill="none" xmlns="http://www.w3.org/2000/svg">
<path d="M15.7301 14.9529C16.5139 14.4131 17.3853 14.2174 18.3326 14.3284C18.9881 14.4047 19.6056 14.6275 20.0797 15.0559C20.6718 15.5907 21.239 16.1528 21.8023 16.7192L22.2846 17.2052C22.4454 17.3671 22.6063 17.5289 22.7679 17.69C23.5845 18.5042 24.388 19.3319 25.2102 20.1405C25.5719 20.4959 25.8684 20.8952 26.084 21.3466C27.073 23.4169 26.3149 25.9232 24.2034 27.0524C22.5562 27.9331 20.4151 27.5979 19.1033 26.2603C18.5191 25.6647 17.9223 25.0813 17.3315 24.4919C17.2897 24.4501 17.2459 24.4065 17.2003 24.361L17.1066 24.2673C17.0584 24.2192 17.0084 24.1692 16.9565 24.1174L16.795 23.956C16.535 23.696 16.2337 23.3946 15.8912 23.0518L15.7418 22.9023C15.59 22.7503 15.4305 22.5907 15.2635 22.4234L14.4395 21.578L15.957 20.046C16.4142 20.4973 16.7201 20.8005 16.8747 20.9556C18.1368 22.2207 19.4013 23.4829 20.6653 24.7456C21.0762 25.1563 21.5732 25.3599 22.1542 25.3749C23.0368 25.3974 23.7911 24.9362 24.1509 24.1248C24.5449 23.2362 24.3566 22.3794 23.7691 21.7506C23.0467 20.9772 22.2718 20.251 21.5292 19.4949C20.6723 18.6226 19.792 17.7729 18.9248 16.9104C18.3284 16.3177 17.4055 16.2999 16.7988 16.8842C16.3387 17.3276 15.888 17.7817 15.4341 18.2317C14.5102 19.1479 13.5844 20.0618 12.6643 20.9818C11.8322 21.8138 11.003 22.6486 10.1789 23.4881C9.34404 24.3383 8.45812 25.1385 7.66729 26.0327C7.4977 26.2242 7.32248 26.4199 7.11728 26.5693C6.29178 27.1695 5.3843 27.5525 4.2243 27.5408C3.80312 27.5529 3.29012 27.4495 2.78507 27.2612C0.845492 26.5374 -0.314985 24.4661 0.075274 22.4323C0.273449 21.3999 0.814572 20.5834 1.56417 19.8718C2.25333 19.2172 2.92187 18.5402 3.5937 17.8679C4.40326 17.0579 5.20346 16.2386 6.01443 15.43L6.05917 15.3853C6.07309 15.3713 6.08906 15.3553 6.10709 15.3372L6.16734 15.2768C6.27066 15.173 6.41872 15.0242 6.61152 14.8303L8.13666 16.3517C7.82628 16.6658 7.62891 16.8655 7.54455 16.9507C6.9355 17.565 6.32129 18.175 5.71084 18.7879C4.77525 19.7271 3.8406 20.6663 2.90735 21.6074C2.74853 21.7675 2.5883 21.9253 2.46977 22.1228C1.9488 22.9895 2.12964 24.0981 2.84222 24.7817C3.71316 25.6174 5.02402 25.5317 5.79002 24.8098C6.38407 24.2494 6.94908 23.658 7.52674 23.0812C8.67924 21.9299 9.8341 20.781 10.9843 19.6274C12.3382 18.2691 13.6866 16.9053 15.0424 15.5494C15.2565 15.335 15.4814 15.1243 15.7301 14.9529ZM22.3388 0.493153C22.76 0.48098 23.273 0.584451 23.7781 0.772665C25.7177 1.49649 26.8781 3.56778 26.4879 5.60161C26.2897 6.63397 25.7486 7.4505 24.999 8.16216C24.3098 8.81669 23.6413 9.4937 22.9694 10.166C22.1599 10.976 21.3597 11.7953 20.5487 12.6039L20.4894 12.6633C20.4741 12.6786 20.4567 12.696 20.4373 12.7155L20.3958 12.7571C20.2925 12.8609 20.1444 13.0097 19.9516 13.2036L18.4265 11.6823C18.7369 11.3681 18.9342 11.1684 19.0186 11.0832C19.6276 10.4689 20.2418 9.85889 20.8523 9.24602C21.7879 8.30683 22.7225 7.36763 23.6558 6.42656C23.8146 6.26644 23.9748 6.10866 24.0934 5.91108C24.6143 5.04446 24.4335 3.93578 23.7209 3.25221C22.85 2.41649 21.5391 2.50217 20.7731 3.22412C20.1791 3.78455 19.6141 4.37588 19.0364 4.95269C17.8839 6.10398 16.729 7.25292 15.5789 8.40655C14.2249 9.76478 12.8766 11.1286 11.5207 12.4845C11.3066 12.6989 11.0818 12.9096 10.833 13.081C10.0492 13.6208 9.17779 13.8165 8.23049 13.7056C7.57506 13.6292 6.95758 13.4064 6.48346 12.978C5.89136 12.4432 5.32412 11.8811 4.76085 11.3147L4.27852 10.8288C4.11774 10.6668 3.95681 10.505 3.79522 10.3439C2.97863 9.52975 2.17515 8.70198 1.35294 7.89341C0.991255 7.53805 0.694698 7.13869 0.479189 6.68735C-0.509811 4.617 0.248216 2.11076 2.35974 0.981479C4.00698 0.100808 6.14801 0.436034 7.4598 1.77366C8.04402 2.3692 8.64089 2.95257 9.23167 3.54203C9.27349 3.58377 9.31721 3.62741 9.36282 3.67296L9.45658 3.76659C9.50471 3.81468 9.55475 3.86467 9.60668 3.91656L9.76815 4.07795C10.0282 4.33789 10.3294 4.63928 10.672 4.98214L10.8213 5.13162C10.9732 5.28363 11.1326 5.44326 11.2996 5.6105L12.1236 6.45588L10.6061 7.98789C10.1828 7.57004 9.88921 7.27915 9.7253 7.1152L9.68846 7.07829C8.42632 5.81323 7.16184 4.55098 5.89783 3.28827C5.48696 2.87766 4.98988 2.674 4.40895 2.65901C3.5263 2.63654 2.77201 3.09771 2.41221 3.90909C2.0182 4.79772 2.20654 5.65451 2.79403 6.2833C3.51646 7.05675 4.29135 7.78292 5.03392 8.53905C5.8908 9.41129 6.77111 10.2611 7.6383 11.1235C8.2347 11.7162 9.15765 11.734 9.76435 11.1497C10.2244 10.7063 10.6751 10.2522 11.1291 9.80224C12.053 8.88598 12.9787 7.97207 13.8989 7.05207C14.7309 6.22009 15.5601 5.3853 16.3842 4.54583C17.2191 3.69559 18.105 2.89545 18.8959 2.0012C19.0654 1.80971 19.2407 1.61401 19.4459 1.46465C20.2714 0.86443 21.1788 0.481448 22.3388 0.493153Z" fill="white"/>
</svg>
